<svg width="12" height="16" viewBox="0 0 12 16" fill="none" xmlns="http://www.w3.org/2000/svg">
<path d="M6 0C2.69158 0 0 2.59944 0 5.79457C0 9.75982 5.36941 15.581 5.59802 15.8269C5.81275 16.0579 6.18764 16.0575 6.40198 15.8269C6.63059 15.581 12 9.75982 12 5.79457C11.9999 2.59944 9.30839 0 6 0ZM6 8.70998C4.33545 8.70998 2.98128 7.40213 2.98128 5.79457C2.98128 4.187 4.33549 2.87919 6 2.87919C7.66452 2.87919 9.01869 4.18704 9.01869 5.7946C9.01869 7.40217 7.66452 8.70998 6 8.70998Z" fill="#277A3E"/>
<circle cx="6" cy="6" r="3" fill="white"/>
<rect x="3.75037" y="8" width="1.5" height="1.45455" fill="#277A3E"/>
<rect x="6.75049" y="8" width="1.5" height="1.45455" fill="#277A3E"/>
<rect x="3.75037" y="2.18164" width="1.5" height="1.45455" fill="#277A3E"/>
<rect x="6.75049" y="2.18164" width="1.5" height="1.45455" fill="#277A3E"/>
<rect x="2.24982" y="6.54541" width="1.5" height="1.45455" fill="#277A3E"/>
<rect x="5.24988" y="6.54541" width="1.5" height="1.45455" fill="#277A3E"/>
<rect x="2.24982" y="3.63623" width="1.5" height="1.45455" fill="#277A3E"/>
<rect x="5.24988" y="3.63623" width="1.5" height="1.45455" fill="#277A3E"/>
<rect x="8.25" y="6.54541" width="1.5" height="1.45455" fill="#277A3E"/>
<rect x="8.25" y="3.63623" width="1.5" height="1.45455" fill="#277A3E"/>
<rect x="3.75037" y="5.09082" width="1.5" height="1.45455" fill="#277A3E"/>
<rect x="6.75049" y="5.09082" width="1.5" height="1.45455" fill="#277A3E"/>
</svg>
